<svg width="42" height="42" viewBox="0 0 42 42" fill="none" xmlns="http://www.w3.org/2000/svg">
<g clip-path="url(#clip0_1_297)">
<path d="M21.5 9C14.5979 9 9 14.5979 9 21.5C9 28.4021 14.5979 34 21.5 34C28.4021 34 34 28.4021 34 21.5C34 14.5979 28.4052 9 21.5 9ZM15.1667 21.9198L15.2198 21.8354L18.4729 16.7479C18.4838 16.7312 18.499 16.7177 18.5169 16.7089C18.5348 16.7 18.5547 16.6961 18.5746 16.6976C18.5945 16.6991 18.6137 16.7059 18.63 16.7173C18.6464 16.7287 18.6594 16.7443 18.6677 16.7625C19.2094 17.9802 19.6802 19.4948 19.4594 20.4375C19.3677 20.825 19.1104 21.35 18.8198 21.8354C18.7825 21.9064 18.7418 21.9756 18.6979 22.0427C18.6874 22.0577 18.6733 22.0698 18.657 22.078C18.6406 22.0862 18.6225 22.0901 18.6042 22.0896H15.2635C15.2436 22.0899 15.224 22.0848 15.2067 22.0748C15.1894 22.0649 15.1751 22.0504 15.1654 22.033C15.1557 22.0156 15.1509 21.9959 15.1515 21.9759C15.1521 21.956 15.158 21.9366 15.1687 21.9198H15.1667ZM29.6604 23.6698C29.6607 23.692 29.6544 23.7139 29.6424 23.7326C29.6303 23.7513 29.6131 23.766 29.5927 23.775C29.3396 23.8823 28.4781 24.2802 28.1198 24.7771C27.2052 26.05 26.5073 27.8708 24.9448 27.8708H18.4302C17.8802 27.87 17.3357 27.7608 16.8279 27.5495C16.3201 27.3381 15.8589 27.0288 15.4707 26.6391C15.0824 26.2495 14.7748 25.7871 14.5654 25.2785C14.3559 24.7699 14.2488 24.225 14.25 23.675V23.6C14.25 23.5396 14.3 23.4896 14.3625 23.4896H17.9927C18.0656 23.4896 18.1177 23.5552 18.1125 23.6271C18.0854 23.8625 18.1302 24.1052 18.2427 24.325C18.4573 24.7625 18.9052 25.0354 19.3875 25.0354H21.1854V23.6323H19.4062C19.3854 23.6321 19.365 23.6262 19.3473 23.6152C19.3295 23.6043 19.3151 23.5887 19.3056 23.5701C19.296 23.5516 19.2917 23.5308 19.2931 23.51C19.2945 23.4892 19.3016 23.4692 19.3135 23.4521L19.3792 23.3583C19.5458 23.1177 19.7865 22.7479 20.026 22.325C20.1885 22.0396 20.3469 21.7354 20.474 21.4292C20.499 21.375 20.5187 21.3177 20.5417 21.2625C20.576 21.1646 20.6115 21.0729 20.6365 20.9823C20.661 20.9054 20.6836 20.828 20.7042 20.75C20.7635 20.4896 20.7885 20.2146 20.7885 19.9302C20.7885 19.8177 20.7844 19.7 20.774 19.5896C20.7688 19.4677 20.7531 19.3448 20.7385 19.2229C20.7269 19.1139 20.7102 19.0054 20.6885 18.8979C20.6605 18.7342 20.6265 18.5716 20.5865 18.4104L20.5719 18.3479C20.5406 18.2354 20.5135 18.1292 20.4781 18.0177C20.3789 17.6754 20.2649 17.3376 20.1365 17.0052C20.0917 16.8802 20.0424 16.7568 19.9885 16.6354C19.9135 16.45 19.8365 16.2823 19.7667 16.125C19.7319 16.0576 19.6993 15.9892 19.6687 15.9198C19.6349 15.8449 19.5991 15.771 19.5615 15.6979C19.5365 15.6427 19.5063 15.5896 19.4865 15.5396L19.2667 15.1354C19.2365 15.0802 19.2865 15.0125 19.3469 15.0302L20.7219 15.4021H20.7323L20.9125 15.4542L21.1125 15.5104L21.1854 15.5302V14.7146C21.1854 14.3198 21.5 14 21.8927 14C21.9854 13.9998 22.0773 14.0183 22.1627 14.0544C22.248 14.0906 22.3252 14.1436 22.3896 14.2104C22.5226 14.3446 22.5974 14.5257 22.5979 14.7146V15.9271L22.7448 15.9677C22.7552 15.9729 22.7677 15.9781 22.7771 15.9854C22.8125 16.0104 22.8646 16.05 22.9302 16.1C22.9823 16.1396 23.0375 16.1896 23.1021 16.2427C23.3078 16.4103 23.5072 16.5854 23.7 16.7677C23.9229 16.975 24.1729 17.2177 24.4125 17.4875C24.4802 17.5646 24.5448 17.6396 24.6125 17.7229C24.6771 17.8052 24.75 17.8854 24.8104 17.9646C24.8927 18.0729 24.9771 18.1854 25.0552 18.3021C25.0896 18.3573 25.1323 18.4146 25.1646 18.4698C25.2646 18.6177 25.35 18.7698 25.4323 18.9229C25.4677 18.9927 25.5021 19.0698 25.5323 19.1448C25.625 19.35 25.6979 19.5573 25.7427 19.7677C25.7575 19.8124 25.7677 19.8584 25.7729 19.9052V19.9156C25.7875 19.975 25.7927 20.0406 25.7979 20.1073C25.8272 20.4152 25.7896 20.7258 25.6875 21.0177C25.6552 21.1052 25.625 21.1948 25.5854 21.2823C25.5073 21.4594 25.4177 21.6396 25.3104 21.8052C25.275 21.8677 25.2323 21.9323 25.1927 21.9948C25.1479 22.0604 25.1 22.1229 25.0604 22.1823C25.0031 22.2612 24.943 22.338 24.8802 22.4125C24.825 22.4875 24.7698 22.5625 24.7073 22.6302C24.6229 22.7323 24.5406 22.8281 24.4521 22.9198C24.4021 22.9802 24.3479 23.0427 24.2896 23.0969C24.2354 23.1594 24.1771 23.2146 24.1271 23.2646C24.0396 23.3521 23.9708 23.4177 23.9104 23.475L23.7677 23.6021C23.7478 23.622 23.7209 23.6333 23.6927 23.6333H22.5979V25.0354H23.975C24.2823 25.0354 24.575 24.9271 24.8125 24.725C24.8927 24.6552 25.2448 24.35 25.6625 23.8896C25.6761 23.8739 25.6943 23.863 25.7146 23.8583L29.5167 22.7573C29.5334 22.7525 29.5509 22.7516 29.568 22.7547C29.5851 22.7578 29.6013 22.7648 29.6152 22.7752C29.6291 22.7856 29.6405 22.7991 29.6483 22.8146C29.6562 22.8301 29.6603 22.8472 29.6604 22.8646V23.6698Z" fill="white"/>
</g>
<circle cx="21" cy="21" r="20.5" stroke="white"/>
<defs>
<clipPath id="clip0_1_297">
<rect width="25" height="25" fill="white" transform="translate(9 9)"/>
</clipPath>
</defs>
</svg>
