<svg width="42" height="42" viewBox="0 0 42 42" fill="none" xmlns="http://www.w3.org/2000/svg">
<g clip-path="url(#clip0_1_301)">
<path d="M30.1635 13.6792C28.5698 12.9604 26.8614 12.4292 25.075 12.1271C25.0591 12.124 25.0426 12.126 25.0279 12.1327C25.0131 12.1394 25.0008 12.1506 24.9927 12.1646C24.7739 12.549 24.5302 13.05 24.3594 13.4458C22.4647 13.1628 20.5384 13.1628 18.6437 13.4458C18.4535 13.0072 18.2389 12.5794 18.001 12.1646C17.993 12.1504 17.9808 12.139 17.9661 12.132C17.9514 12.1249 17.9348 12.1225 17.9187 12.125C16.1333 12.4271 14.425 12.9583 12.8302 13.6781C12.8165 13.6839 12.8048 13.6937 12.7969 13.7063C9.55519 18.4719 8.66665 23.1198 9.10311 27.7094C9.10432 27.7206 9.10781 27.7315 9.11336 27.7414C9.11891 27.7512 9.12641 27.7598 9.1354 27.7667C11.0275 29.1442 13.1378 30.1936 15.3781 30.8708C15.3937 30.8757 15.4104 30.8756 15.426 30.8708C15.4416 30.866 15.4554 30.8566 15.4656 30.8438C15.9477 30.199 16.3749 29.5151 16.7427 28.799C16.7478 28.7892 16.7507 28.7784 16.7513 28.7674C16.7519 28.7564 16.7501 28.7453 16.7461 28.7351C16.742 28.7248 16.7358 28.7155 16.7278 28.7078C16.7199 28.7002 16.7104 28.6943 16.7 28.6906C16.0271 28.4372 15.3751 28.1314 14.75 27.7761C14.7388 27.7696 14.7293 27.7605 14.7224 27.7496C14.7156 27.7386 14.7116 27.7261 14.7107 27.7132C14.7099 27.7003 14.7123 27.6874 14.7177 27.6756C14.7231 27.6639 14.7313 27.6536 14.7416 27.6458C14.8729 27.549 15.0041 27.4479 15.1291 27.3469C15.1404 27.3378 15.154 27.332 15.1683 27.3302C15.1826 27.3283 15.1972 27.3305 15.2104 27.3365C19.301 29.174 23.7312 29.174 27.7739 27.3365C27.7872 27.3302 27.8019 27.3277 27.8164 27.3294C27.831 27.331 27.8448 27.3367 27.8562 27.3458C27.9812 27.4479 28.1114 27.549 28.2437 27.6458C28.2542 27.6535 28.2625 27.6636 28.2681 27.6752C28.2737 27.6869 28.2762 27.6997 28.2756 27.7126C28.275 27.7255 28.2712 27.7381 28.2645 27.7491C28.2579 27.7602 28.2486 27.7695 28.2375 27.7761C27.6146 28.1344 26.9667 28.4375 26.2864 28.6896C26.276 28.6934 26.2665 28.6994 26.2585 28.7071C26.2506 28.7149 26.2444 28.7243 26.2403 28.7346C26.2363 28.745 26.2345 28.7561 26.2351 28.7672C26.2357 28.7783 26.2386 28.7891 26.2437 28.799C26.6187 29.5146 27.0479 30.1958 27.5198 30.8427C27.5296 30.856 27.5433 30.8659 27.5589 30.8711C27.5746 30.8764 27.5915 30.8766 27.6073 30.8719C29.8514 30.1965 31.9652 29.1467 33.8594 27.7667C33.8686 27.7602 33.8764 27.7519 33.8821 27.7422C33.8879 27.7325 33.8915 27.7216 33.8927 27.7104C34.4135 22.4042 33.0198 17.7938 30.1958 13.7083C30.1889 13.6951 30.1774 13.6847 30.1635 13.6792ZM17.3541 24.9146C16.1229 24.9146 15.1073 23.8011 15.1073 22.4354C15.1073 21.0688 16.1031 19.9563 17.3541 19.9563C18.6146 19.9563 19.6208 21.0781 19.601 22.4354C19.601 23.8021 18.6052 24.9146 17.3541 24.9146ZM25.6614 24.9146C24.4291 24.9146 23.4146 23.8011 23.4146 22.4354C23.4146 21.0688 24.4094 19.9563 25.6614 19.9563C26.9219 19.9563 27.9281 21.0781 27.9083 22.4354C27.9083 23.8021 26.9229 24.9146 25.6614 24.9146Z" fill="white"/>
</g>
<circle cx="21" cy="21" r="20.5" stroke="white"/>
<defs>
<clipPath id="clip0_1_301">
<rect width="25" height="25" fill="white" transform="translate(9 9)"/>
</clipPath>
</defs>
</svg>
