<svg width="42" height="42" viewBox="0 0 42 42" fill="none" xmlns="http://www.w3.org/2000/svg">
<circle cx="21" cy="21" r="20.5" stroke="white"/>
<path d="M20.5 6.1875C12.0439 6.1875 5.1875 13.0439 5.1875 21.5C5.1875 29.9561 12.0439 36.8125 20.5 36.8125C28.9561 36.8125 35.8125 29.9561 35.8125 21.5C35.8125 13.0439 28.9561 6.1875 20.5 6.1875ZM29.25 14.8589L27.8555 16.1953C27.7324 16.2876 27.6743 16.438 27.6982 16.585V26.4185C27.6743 26.5689 27.7324 26.7192 27.8555 26.8081L29.2227 28.1445V28.4419H22.3594V28.1582L23.771 26.7876C23.9111 26.6475 23.9111 26.6064 23.9111 26.398V18.4409L19.9805 28.4077H19.4507L14.8774 18.4409V25.123C14.8364 25.4033 14.9355 25.687 15.1338 25.8887L16.9727 28.1138V28.4111H11.75V28.1138L13.5889 25.8887C13.6858 25.7886 13.7579 25.6672 13.7994 25.5343C13.841 25.4013 13.8508 25.2605 13.8281 25.123V17.3984C13.8521 17.1831 13.77 16.9746 13.606 16.8276L11.9722 14.8589V14.5615H17.0479L20.9648 23.1577L24.4136 14.5684H29.25V14.8589Z" fill="white"/>
</svg>
